<svg xmlns="http://www.w3.org/2000/svg" version="1.1" xmlns:xlink="http://www.w3.org/1999/xlink" xmlns:svgjs="http://svgjs.com/svgjs" width="1000" height="1000"><rect width="1000" height="1000" rx="500" ry="500" fill="#35cfe3"></rect><g transform="matrix(0.5714285714285714,0,0,0.5714285714285714,99.82856750488281,431.792856488909)"><svg xmlns="http://www.w3.org/2000/svg" version="1.1" xmlns:xlink="http://www.w3.org/1999/xlink" xmlns:svgjs="http://svgjs.com/svgjs" width="1400" height="240"><svg xmlns="http://www.w3.org/2000/svg" version="1.1" xmlns:xlink="http://www.w3.org/1999/xlink" xmlns:svgjs="http://svgjs.com/svgjs" width="1400" height="240" preserveAspectRatio="none" viewBox="0 0 1400 240"><g mask="url(&quot;#SvgjsMask2343&quot;)" fill="none"><path d="M50.06 -66.65L115.01 -29.15L115.01 45.85L50.06 83.35L-14.89 45.85L-14.89 -29.15zM309.88 -66.65L374.83 -29.15L374.83 45.85L309.88 83.35L244.92 45.85L244.92 -29.15zM309.88 158.35L374.83 195.85L374.83 270.85L309.88 308.35L244.92 270.85L244.92 195.85zM569.69 -66.65L634.64 -29.15L634.64 45.85L569.69 83.35L504.74 45.85L504.74 -29.15zM764.55 45.85L829.51 83.35L829.51 158.35L764.55 195.85L699.6 158.35L699.6 83.35zM699.6 158.35L764.55 195.85L764.55 270.85L699.6 308.35L634.64 270.85L634.64 195.85zM894.46 45.85L959.41 83.35L959.41 158.35L894.46 195.85L829.5 158.35L829.5 83.35zM829.5 158.35L894.46 195.85L894.46 270.85L829.5 308.35L764.55 270.85L764.55 195.85zM1154.27 45.85L1219.23 83.35L1219.23 158.35L1154.27 195.85L1089.32 158.35L1089.32 83.35zM1219.23 -66.65L1284.18 -29.15L1284.18 45.85L1219.23 83.35L1154.27 45.85L1154.27 -29.15zM1284.18 45.85L1349.13 83.35L1349.13 158.35L1284.18 195.85L1219.23 158.35L1219.23 83.35zM1219.23 158.35L1284.18 195.85L1284.18 270.85L1219.23 308.35L1154.27 270.85L1154.27 195.85zM1349.13 -66.65L1414.09 -29.15L1414.09 45.85L1349.13 83.35L1284.18 45.85L1284.18 -29.15z" stroke="rgba(0, 0, 0, 0)" stroke-width="2"></path><path d="M42.56 -66.65 a7.5 7.5 0 1 0 15 0 a7.5 7.5 0 1 0 -15 0zM107.51 -29.15 a7.5 7.5 0 1 0 15 0 a7.5 7.5 0 1 0 -15 0zM107.51 45.85 a7.5 7.5 0 1 0 15 0 a7.5 7.5 0 1 0 -15 0zM42.56 83.35 a7.5 7.5 0 1 0 15 0 a7.5 7.5 0 1 0 -15 0zM-22.39 45.85 a7.5 7.5 0 1 0 15 0 a7.5 7.5 0 1 0 -15 0zM-22.39 -29.15 a7.5 7.5 0 1 0 15 0 a7.5 7.5 0 1 0 -15 0zM302.38 -66.65 a7.5 7.5 0 1 0 15 0 a7.5 7.5 0 1 0 -15 0zM367.33 -29.15 a7.5 7.5 0 1 0 15 0 a7.5 7.5 0 1 0 -15 0zM367.33 45.85 a7.5 7.5 0 1 0 15 0 a7.5 7.5 0 1 0 -15 0zM302.38 83.35 a7.5 7.5 0 1 0 15 0 a7.5 7.5 0 1 0 -15 0zM237.42 45.85 a7.5 7.5 0 1 0 15 0 a7.5 7.5 0 1 0 -15 0zM237.42 -29.15 a7.5 7.5 0 1 0 15 0 a7.5 7.5 0 1 0 -15 0zM302.38 158.35 a7.5 7.5 0 1 0 15 0 a7.5 7.5 0 1 0 -15 0zM367.33 195.85 a7.5 7.5 0 1 0 15 0 a7.5 7.5 0 1 0 -15 0zM367.33 270.85 a7.5 7.5 0 1 0 15 0 a7.5 7.5 0 1 0 -15 0zM302.38 308.35 a7.5 7.5 0 1 0 15 0 a7.5 7.5 0 1 0 -15 0zM237.42 270.85 a7.5 7.5 0 1 0 15 0 a7.5 7.5 0 1 0 -15 0zM237.42 195.85 a7.5 7.5 0 1 0 15 0 a7.5 7.5 0 1 0 -15 0zM562.19 -66.65 a7.5 7.5 0 1 0 15 0 a7.5 7.5 0 1 0 -15 0zM627.14 -29.15 a7.5 7.5 0 1 0 15 0 a7.5 7.5 0 1 0 -15 0zM627.14 45.85 a7.5 7.5 0 1 0 15 0 a7.5 7.5 0 1 0 -15 0zM562.19 83.35 a7.5 7.5 0 1 0 15 0 a7.5 7.5 0 1 0 -15 0zM497.24 45.85 a7.5 7.5 0 1 0 15 0 a7.5 7.5 0 1 0 -15 0zM497.24 -29.15 a7.5 7.5 0 1 0 15 0 a7.5 7.5 0 1 0 -15 0zM757.05 45.85 a7.5 7.5 0 1 0 15 0 a7.5 7.5 0 1 0 -15 0zM822.01 83.35 a7.5 7.5 0 1 0 15 0 a7.5 7.5 0 1 0 -15 0zM822.01 158.35 a7.5 7.5 0 1 0 15 0 a7.5 7.5 0 1 0 -15 0zM757.05 195.85 a7.5 7.5 0 1 0 15 0 a7.5 7.5 0 1 0 -15 0zM692.1 158.35 a7.5 7.5 0 1 0 15 0 a7.5 7.5 0 1 0 -15 0zM692.1 83.35 a7.5 7.5 0 1 0 15 0 a7.5 7.5 0 1 0 -15 0zM757.05 270.85 a7.5 7.5 0 1 0 15 0 a7.5 7.5 0 1 0 -15 0zM692.1 308.35 a7.5 7.5 0 1 0 15 0 a7.5 7.5 0 1 0 -15 0zM627.14 270.85 a7.5 7.5 0 1 0 15 0 a7.5 7.5 0 1 0 -15 0zM627.14 195.85 a7.5 7.5 0 1 0 15 0 a7.5 7.5 0 1 0 -15 0zM886.96 45.85 a7.5 7.5 0 1 0 15 0 a7.5 7.5 0 1 0 -15 0zM951.91 83.35 a7.5 7.5 0 1 0 15 0 a7.5 7.5 0 1 0 -15 0zM951.91 158.35 a7.5 7.5 0 1 0 15 0 a7.5 7.5 0 1 0 -15 0zM886.96 195.85 a7.5 7.5 0 1 0 15 0 a7.5 7.5 0 1 0 -15 0zM822 158.35 a7.5 7.5 0 1 0 15 0 a7.5 7.5 0 1 0 -15 0zM822 83.35 a7.5 7.5 0 1 0 15 0 a7.5 7.5 0 1 0 -15 0zM886.96 270.85 a7.5 7.5 0 1 0 15 0 a7.5 7.5 0 1 0 -15 0zM822 308.35 a7.5 7.5 0 1 0 15 0 a7.5 7.5 0 1 0 -15 0zM1146.77 45.85 a7.5 7.5 0 1 0 15 0 a7.5 7.5 0 1 0 -15 0zM1211.73 83.35 a7.5 7.5 0 1 0 15 0 a7.5 7.5 0 1 0 -15 0zM1211.73 158.35 a7.5 7.5 0 1 0 15 0 a7.5 7.5 0 1 0 -15 0zM1146.77 195.85 a7.5 7.5 0 1 0 15 0 a7.5 7.5 0 1 0 -15 0zM1081.82 158.35 a7.5 7.5 0 1 0 15 0 a7.5 7.5 0 1 0 -15 0zM1081.82 83.35 a7.5 7.5 0 1 0 15 0 a7.5 7.5 0 1 0 -15 0zM1211.73 -66.65 a7.5 7.5 0 1 0 15 0 a7.5 7.5 0 1 0 -15 0zM1276.68 -29.15 a7.5 7.5 0 1 0 15 0 a7.5 7.5 0 1 0 -15 0zM1276.68 45.85 a7.5 7.5 0 1 0 15 0 a7.5 7.5 0 1 0 -15 0zM1146.77 -29.15 a7.5 7.5 0 1 0 15 0 a7.5 7.5 0 1 0 -15 0zM1341.63 83.35 a7.5 7.5 0 1 0 15 0 a7.5 7.5 0 1 0 -15 0zM1341.63 158.35 a7.5 7.5 0 1 0 15 0 a7.5 7.5 0 1 0 -15 0zM1276.68 195.85 a7.5 7.5 0 1 0 15 0 a7.5 7.5 0 1 0 -15 0zM1276.68 270.85 a7.5 7.5 0 1 0 15 0 a7.5 7.5 0 1 0 -15 0zM1211.73 308.35 a7.5 7.5 0 1 0 15 0 a7.5 7.5 0 1 0 -15 0zM1146.77 270.85 a7.5 7.5 0 1 0 15 0 a7.5 7.5 0 1 0 -15 0zM1341.63 -66.65 a7.5 7.5 0 1 0 15 0 a7.5 7.5 0 1 0 -15 0zM1406.59 -29.15 a7.5 7.5 0 1 0 15 0 a7.5 7.5 0 1 0 -15 0zM1406.59 45.85 a7.5 7.5 0 1 0 15 0 a7.5 7.5 0 1 0 -15 0z" fill="rgba(0, 0, 0, 0)"></path><path d="M37.58 -19.92L79.15 4.08L79.15 52.08L37.58 76.08L-3.99 52.08L-3.99 4.08zM79.15 52.08L120.72 76.08L120.72 124.08L79.15 148.08L37.58 124.08L37.58 76.08zM79.15 196.08L120.72 220.08L120.72 268.08L79.15 292.08L37.58 268.08L37.58 220.08zM120.72 -19.92L162.29 4.08L162.29 52.08L120.72 76.08L79.15 52.08L79.15 4.08zM120.72 124.08L162.29 148.08L162.29 196.08L120.72 220.08L79.15 196.08L79.15 148.08zM203.86 124.08L245.43 148.08L245.43 196.08L203.86 220.08L162.29 196.08L162.29 148.08zM328.57 196.08L370.14 220.08L370.14 268.08L328.57 292.08L287 268.08L287 220.08zM411.71 196.08L453.28 220.08L453.28 268.08L411.71 292.08L370.14 268.08L370.14 220.08zM536.42 124.08L578 148.08L578 196.08L536.42 220.08L494.85 196.08L494.85 148.08zM578 196.08L619.57 220.08L619.57 268.08L578 292.08L536.42 268.08L536.42 220.08zM619.57 -19.92L661.14 4.08L661.14 52.08L619.57 76.08L578 52.08L578 4.08zM619.57 124.08L661.14 148.08L661.14 196.08L619.57 220.08L578 196.08L578 148.08zM744.28 52.08L785.85 76.08L785.85 124.08L744.28 148.08L702.71 124.08L702.71 76.08zM785.85 -19.92L827.42 4.08L827.42 52.08L785.85 76.08L744.28 52.08L744.28 4.08zM827.42 196.08L868.99 220.08L868.99 268.08L827.42 292.08L785.85 268.08L785.85 220.08zM868.99 -19.92L910.56 4.08L910.56 52.08L868.99 76.08L827.42 52.08L827.42 4.08zM910.56 52.08L952.13 76.08L952.13 124.08L910.56 148.08L868.99 124.08L868.99 76.08zM868.99 124.08L910.56 148.08L910.56 196.08L868.99 220.08L827.42 196.08L827.42 148.08zM1035.27 -19.92L1076.84 4.08L1076.84 52.08L1035.27 76.08L993.7 52.08L993.7 4.08zM1076.84 52.08L1118.41 76.08L1118.41 124.08L1076.84 148.08L1035.27 124.08L1035.27 76.08zM1035.27 124.08L1076.84 148.08L1076.84 196.08L1035.27 220.08L993.7 196.08L993.7 148.08zM1243.12 52.08L1284.69 76.08L1284.69 124.08L1243.12 148.08L1201.55 124.08L1201.55 76.08zM1243.12 196.08L1284.69 220.08L1284.69 268.08L1243.12 292.08L1201.55 268.08L1201.55 220.08zM1326.26 196.08L1367.83 220.08L1367.83 268.08L1326.26 292.08L1284.69 268.08L1284.69 220.08zM1367.83 124.08L1409.4 148.08L1409.4 196.08L1367.83 220.08L1326.26 196.08L1326.26 148.08z" stroke="rgba(0, 194, 203, 1)" stroke-width="2"></path></g><defs><mask id="SvgjsMask2343"><rect width="1400" height="240" fill="#ffffff"></rect></mask></defs></svg></svg></g></svg>